<svg width="87" height="152" viewBox="0 0 87 152" fill="none" xmlns="http://www.w3.org/2000/svg">
<path d="M83.3038 20.8617C80.5107 19.0238 80.6305 14.65 79.2507 11.6225C78.6692 10.3485 77.9432 8.87702 77.0533 7.60295C76.2726 6.48572 75.9078 6.76767 75.7827 5.40902C75.6488 3.94111 77.0868 2.64061 76.4471 1L20.7176 1.44055C20.314 3.57809 22.2965 4.38694 23.9882 4.7711C23.7486 8.94575 27.9162 8.29902 29.4898 11.337C30.1594 12.627 29.9445 15.591 29.5814 16.9091C29.2131 18.2501 27.8386 19.133 27.7399 20.3243C26.1857 20.8705 25.7786 22.4618 25.6006 23.898C25.4879 24.8073 26.191 25.0469 25.5231 26.0496C25.116 26.6629 23.5547 27.0523 22.9186 27.477C21.3132 28.552 19.9687 28.9009 18.4761 29.6198C17.0487 30.3071 17.4857 30.7864 15.8733 30.797C14.9658 30.8023 14.0089 30.2578 13.0062 30.2965C10.6625 30.3864 9.92589 32.2138 9.85717 34.6809C9.79196 36.9894 11.8432 37.4334 12.6256 39.3718C12.9692 40.2247 12.9252 41.9094 12.7859 42.8064C12.578 44.1615 12.5569 43.7439 11.7832 45.0496C10.3823 47.4092 10.0457 48.9194 9.88889 51.6332C8.07735 51.6085 5.10804 53.2897 4.4014 54.955C4.03486 55.8202 4.63401 57.0114 4.42079 57.8291C4.0754 59.1596 2.79252 60.2821 1.96605 61.3694C-0.462263 64.5642 2.45241 70.5663 2.45594 74.7462C5.42171 75.326 4.56529 77.5005 5.94685 79.5711C7.4641 81.8443 9.80254 81.9765 11.4097 83.8814C12.252 84.8788 12.8441 85.8568 13.8873 86.4683C14.4301 86.7873 15.9297 86.7749 16.3139 87.1697C17.4699 88.3521 17.3571 91.3531 18.1201 93.0889C18.9801 95.0397 18.9889 97.3305 19.8418 99.2566C21.4665 102.938 21.8894 97.4609 24.0147 97.2371C25.3627 97.0944 25.9936 98.9553 26.8307 99.4275C27.7805 99.965 28.8642 99.3888 29.6502 99.7306C31.5868 100.576 30.8573 103.643 28.4589 103.459C28.1858 104.603 28.3056 105.37 28.4254 106.494C28.6721 108.771 28.792 108.506 27.7593 110.084C26.4571 112.07 26.2897 113.463 25.5672 115.381C24.5204 118.16 24.2455 117.894 26.6632 119.726C27.5232 120.378 27.9567 121.261 28.6933 121.94C29.8282 122.985 31.2555 123.362 32.593 124.126C33.89 124.87 34.3993 126.421 35.2381 126.962C36.0469 127.485 37.2135 126.77 38.1299 127.48C38.8594 128.047 39.0339 129.247 39.8321 129.912C40.9459 130.84 42.1741 131.158 43.1962 132.324C44.1566 133.422 44.3099 134.455 44.7258 135.634C45.1064 136.71 45.4236 137.556 45.8747 138.673C46.4739 140.152 46.5972 139.066 45.9981 140.591C45.6668 141.431 44.5125 142.201 44.2235 143.245C43.8359 144.64 43.9592 145.058 44.8914 146.388C45.3038 146.979 46.4721 149.426 46.9779 149.856C48.5973 151.24 48.5321 149.206 49.1154 149.171C50.4529 149.09 50.6397 150.295 51.7622 151C53.3394 149.037 52.2116 146.894 54.5994 145.486C56.0937 144.605 57.3167 144.827 58.989 145.541C60.864 146.341 65.9056 150.773 66.5858 146.432C66.762 145.306 65.4474 144.624 65.2501 143.525C64.8307 141.172 66.1136 140.457 67.7436 139.99C68.5383 139.762 69.3102 140.185 70.0662 139.785C70.7887 139.403 71.0125 138.305 71.8301 137.833C72.7993 137.272 74.2038 137.257 75.3087 137.315C74.9615 136.143 73.6945 135.42 73.1412 134.264C72.1843 132.259 73.328 132.078 74.0752 130.255C74.7924 128.506 73.9201 126.335 74.4946 124.606C75.0126 123.055 75.9995 122.572 76.0365 120.641C76.2973 120.641 76.5881 120.6 76.8524 120.584C77.3687 118.521 74.8611 118.126 76.2215 115.745C77.2119 114.01 79.7142 113.918 80.7116 112.242C81.1416 111.52 80.8702 110.417 81.2755 109.594C81.8658 108.395 83.2051 108.048 83.9382 107.12C84.6413 106.228 86.074 103.935 86.363 102.763C86.8951 100.606 85.3515 95.6441 83.8783 93.9489C82.9549 92.8845 81.6191 93.11 82.2659 90.828C82.6694 89.4077 84.8246 88.5935 83.517 86.9617C84.2166 86.6675 85.2457 86.1458 84.8158 86.9054L83.3038 20.8617Z" stroke="black" stroke-width="0.5" stroke-miterlimit="10" stroke-linecap="round" stroke-linejoin="round"/>
</svg>
