<svg width="241" height="150" viewBox="0 0 241 150" fill="none" xmlns="http://www.w3.org/2000/svg">
<path d="M230.588 32.0376L234.108 27.3909L237.538 24.9048L240.907 21.8231L240.024 19.331L236.473 17.0392L234.052 9.47684L231.692 8.32841L229.459 10.0544L227.664 8.9164L225.932 14.2451L226.022 18.942L225.382 21.8094L224.092 23.1792L222.757 23.7514L222.744 25.2179L215.55 27.1343L209.454 28.673L207.853 30.1672L204.576 34.9021L204.294 35.174L204.557 35.2487L205.158 35.9587L205.839 37.9622L203.287 40.3744L199.857 40.6074L196.532 41.0486L194.321 42.2805L195.274 43.9412L195.43 44.3931L192.515 48.3578L189.644 50.5419L187.599 51.6708L185.319 53.6595L182.394 54.877L180.273 54.9017L177.688 54.1614L178.751 51.9391L179.403 49.7908L180.901 46.4021L180.974 46.3296L180.906 46.2607L180.927 46.2557L180.366 43.9445L179.082 40.6277L177.266 40.2329L175.028 43.1394L174.419 43.1858L174.077 41.9958L176.018 39.4137L176.025 36.6878L175.301 34.008L171.934 32.1379L168.12 31.3654L167.804 33.7433L166.979 34.4366L166.688 36.6439L166.233 35.2259L164.525 37.0343L163.699 39.1131L162.909 42.0957L162.959 44.6234L164.731 48.0339L165.017 51.7493L163.611 54.6627L162.849 55.5181L161.812 56.2239L160.47 56.3827L160.127 56.1043L158.723 53.254L158.56 51.8014L158.544 50.3821L157.766 47.6018L158.261 44.3079L158.822 40.2252L160.616 35.3215L159.632 35.4522L157.047 39.3367L156.68 38.9622L157.991 36.9057L157.998 36.9077L158.048 36.8116L158.174 36.5897L158.165 36.5872L160.064 32.9404L162.686 32.1595L165.686 30.6663L168.873 30.8913L169.041 30.9038L172.854 29.8292L170.434 27.6823L170.965 26.8983L169.146 26.8879L168.975 27.4766L167.958 27.4103L166.906 25.8635L162.936 26.8482L159.582 28.4756L156.621 26.5753L154.459 26.0711L155.557 22.5996L151.809 25.0996L148.775 27.2113L145.886 28.838L143.342 26.997L139.545 28.3557L139.529 27.824L142.05 25.3001L144.709 22.8306L148.566 20.6592L148.92 20.3235H148.501L143.576 19.1081L140.472 20.0306L136.673 18.4051L132.628 17.5868L129.961 17.2927L128.829 16.391L128.084 13.0981L126.466 13.1549L126.479 15.401L118.681 15.3787L105.581 14.9448L92.2672 13.9951L80.8147 12.7898L69.4044 11.2085L58.0524 9.25395L46.7714 6.92568L43.076 6.08307L31.9805 3.26613L20.7333 0L21.1103 5.38713L20.3544 10.07L19.2909 10.9888L18.9661 6.36466L13.7737 3.54891L12.6269 9.32767L12.1949 14.2593L8.8479 22.3598L6.58494 28.4695L3.43556 34.0039L3.75762 37.5311L2.40865 42.2312L0 46.5396L1.30117 50.2869L0.475854 54.9492L2.40292 60.6356L3.74659 62.9943L3.22301 64.1923L4.65614 73.0162L4.65944 73.0363L7.45198 79.8392L7.16024 83.0646L8.15863 84.383L11.6919 85.7958L13.2472 88.0856L15.0807 88.7812L19.1922 93.3217L20.4726 96.6537L20.5636 98.9815L26.2442 99.819L32.1512 100.504L31.5437 101.409L38.4298 105.739L48.8377 111.758L48.8667 111.775L58.4753 113.242L58.4749 113.245L58.6551 113.269L58.8273 113.296L58.8277 113.293L62.779 113.834L63.1628 111.47L71.3825 112.503L72.8979 114.688L75.2489 116.806L77.9268 119.63L79.2788 122.776L80.2462 126.126L82.7585 128.152L87.0087 130.333L90.5965 125.937L94.6059 126.097L97.9805 128.569L100.314 132.647L101.937 136.152L104.866 139.624L105.854 143.73L107.279 146.634L111.437 148.613L115.226 150L117.61 149.834L116.527 147.608L116.309 144.825L116.419 140.823L117.626 138.268L120.443 135.544L125.55 133.042L125.574 133.03L130.186 128.672L134.442 127.387L138.811 127.435L142.678 128.04L145.656 129.101L150.079 130.067L150.107 130.073L157.417 129.356L155.484 125.798L155.864 123.543L158.662 123.428L161.631 121.88L165.864 122.111L165.835 122.192L166.125 122.125L166.234 122.131L166.246 122.097L171.695 120.837L176.642 122.875L178.063 124.435L183.457 121.278L186.518 123.026L190.253 125.992L191.856 128.974L191.499 132.609L192.4 135.395L195.598 139.275L199.178 143.878L201.381 144.889L202.652 147.339L205.543 147.624L207.718 146.127L207.928 140.79L206.787 135.635L206.781 135.607L203.512 130.087L203.122 127.828L200.091 123.872L197.42 119.496L196.113 115.47L196.515 112.102L197.929 107.624L202.45 103.883L206.012 99.5624L206.037 99.5316L207.13 95.2341L208.69 94.5907L212.153 90.9059L216.291 87.7339L218.345 82.794L216.473 77.4382L216.531 77.4252L216.395 77.2172L216.355 77.1018L216.325 77.1086L214.313 74.0153L212.747 71.3318L210.245 69.5052L212.398 70.288L211.203 65.144L211.368 63.9176L212.276 67.2969L215.099 69.4477L214.412 73.6356L215.194 73.8603L216.735 68.6417L218.035 66.2451L217.597 65.7073L215.744 63.1286L214.244 60.4992L214.322 60.4676L215.669 61.6616L216.653 61.7248L217.445 63.3486L219.741 57.8765L219.477 53.4516L218.41 53.4685L218.885 51.6214L218.98 52.7242L221.894 51.9788L227.722 48.558L225.815 47.6631L221.267 49.4719L223.071 48.1568L225.428 47.2429L226.946 46.5773L226.944 46.6362L227.219 46.4574L227.308 46.4184L227.309 46.3992L230.006 44.6483L232.042 44.1883L234.701 42.4L234.553 40.521L232.342 39.3247L233.536 41.5339L232.115 41.8254L230.003 39.3851L229.228 36.5116L229.551 35.118L230.588 32.0376ZM233.223 40.2063L234.213 40.742L234.329 42.2206L231.898 43.8557L230.041 44.2755L229.722 43.5395L228.883 43.0815L228.125 41.6259L226.258 42.2119L222.362 43.1168L219.359 43.7881L219.28 40.0688L222.465 39.3316L222.468 39.334L222.564 39.3087L222.872 39.2376L222.865 39.2302L227.629 37.9849L227.917 37.2767L228.6 36.7216L228.911 36.7016L229.681 39.5565L231.983 42.216L234.077 41.7863L233.223 40.2063ZM229.713 44.4143L227.325 45.9641L227.346 45.3948L226.523 42.5019L227.947 42.0549L228.617 43.3421L229.444 43.7934L229.713 44.4143ZM219.299 52.2751L219.152 50.5819L219.184 50.4566L219.14 50.4399V50.4399L219.074 50.415L215.543 49.0849L215.564 49.0684L215.247 48.9732L215.157 48.9394L215.151 48.9445L214.46 48.7367L213.717 48.5343L213.314 47.881L213.278 47.1894L212.577 46.7469L211.399 46.0399L205.625 47.317L199.489 48.5888L193.073 49.8049L192.839 48.5177L195.828 44.4534L195.62 43.8518L195.615 43.8195L194.809 42.4161L196.646 41.3927L199.893 40.9615L203.439 40.721L206.25 38.0639L205.474 35.7802L204.883 35.0831L208.11 30.4143L209.63 28.9958L215.458 27.5249L215.63 28.4821L215.652 29.2334L216.181 30.9225L216.608 31.707L216.497 32.9688L217.242 34.3425L217.188 35.2305L217.416 35.57L217.955 35.4731L218.921 39.9488L219.004 43.8674L218.977 43.8734L219.008 44.0288L219.012 44.2305L219.046 44.2229L219.868 48.4391L220.221 48.7448L219.484 49.4774L219.958 50.4259L220.11 50.3152L225.803 48.0509L226.959 48.5935L221.781 51.6401L219.299 52.2751ZM216.882 61.3828L215.814 61.314L214.393 60.0544L214.096 60.175L213.826 59.3843L214.272 58.7397L215.046 58.0144L215.279 57.5843L216.115 56.6161L216.624 55.701L214.842 54.5096L214.611 53.8862L214.125 53.8227L213.971 53.094L214.322 52.2604L213.943 51.6153L214.448 51.0312L214.887 49.6172L215.223 49.3447L218.261 50.4894L218.76 50.6773L217.949 53.8319L219.142 53.8131L219.381 57.8151L217.421 62.4866L216.882 61.3828ZM214.815 73.3809L215.462 69.4319L215.674 69.0547L216.301 68.8552L214.953 73.4205L214.815 73.3809ZM216.442 68.4359L215.503 68.7356L215.433 68.7578L215.433 68.7579L215.433 68.758L215.392 68.831L215.237 69.105L212.588 67.0872L211.481 62.968L211.133 62.9905L210.842 65.1612L211.903 69.7291L209.247 68.7638L208.763 67.9249L208.003 68.374L207.579 68.2553L207.667 67.7608L207.783 67.1046L207.786 67.1017L208.44 66.401L208.422 65.9173L208.96 65.1965L207.992 64.5379L207.678 64.9001L206.851 64.5021L206.003 64.3688L206.144 63.8834L206.186 63.7435L206.036 63.6762L205.349 63.3626L204.714 63.3083L204.272 62.7216L203.517 61.9611L202.205 61.7991L205.062 61.2L208.791 60.4398L212.448 59.6163L214.388 66.7028L217.388 66.0138L217.608 66.2849L216.442 68.4359ZM197.544 107.661L196.171 112.01L195.772 115.318L194.885 115.369L193.797 115.09L193.057 115.468L193.361 117.507L193.022 117.877L192.565 117.05L184.253 117.352L179.317 117.725L178.435 116.361L178.107 115.711L177.731 115.056L177.75 114.141V113.075L177.355 112.026L177.406 110.245L178.119 109.089L177.518 108.026L176.611 106.325L174.799 100.775L172.797 94.0037L176.234 93.6442L178.737 93.2688L182.3 92.8118L184.155 92.574L183.989 92.7761L183.288 94.1512L184.849 95.0034L185.696 95.231L186.81 96.8632L187.547 97.8198L189.405 98.9212L189.842 99.5817L191.117 100.334L191.891 101.61L193.599 102.513L194.128 103.707L194.489 104.257L194.376 104.768L195.462 105.285L196.069 106.205L196.251 107.369L196.843 107.537L197.544 107.661ZM202.879 147.003L201.641 144.617L199.405 143.591L195.876 139.052L192.718 135.221L191.861 132.571L192.221 128.901L190.532 125.758L186.729 122.739L183.455 120.867L178.132 123.982L176.851 122.576L171.725 120.465L166.385 121.7L166.568 121.177L166.742 119.89L165.469 118.586L165.489 118.352L168.159 117.78L178.191 116.639L179.133 118.096L184.273 117.707L192.359 117.414L192.949 118.483L193.738 117.623L193.447 115.669L193.84 115.468L194.85 115.728L195.805 115.673L197.088 119.626L199.792 124.066L202.786 127.975L203.173 130.212L206.446 135.739L207.57 140.822L207.369 145.934L205.449 147.256L202.879 147.003ZM165.986 121.761L161.754 121.53L160.876 112.871L160.957 103.596L161.165 96.0661L161.166 96.0292L160.807 95.132L166.513 94.6027L172.437 94.0401L174.459 100.881L176.278 106.451L177.206 108.197L177.705 109.081L177.052 110.139L176.997 112.086L177.394 113.14V114.138L177.372 115.147L177.794 115.88L178.006 116.302L168.102 117.429L165.156 118.058L165.1 118.718L166.367 120.015L166.225 121.077L165.986 121.761ZM161.402 121.598L158.568 123.075L155.852 123.187L155.75 122.757L155.49 121.758L154.768 121.116L154.447 120.496L154.696 119.591L154.793 118.381L149.892 118.68L145.627 118.729L145.399 117.522L145.946 116.878L146.335 115.426L146.707 114.229L147.623 113.266L147.79 112.165L148.508 111.47L147.776 110.45L147.938 109.727L147.179 108.596L147.593 107.706L147.199 107.37L147.365 106.27L146.723 104.774L146.759 103.475L147.689 101.425L148.118 100.244L148.879 99.4515L149.446 99.0681L150.02 97.4006V97.4005V97.4004L149.989 96.6381L150.793 96.1654L150.846 95.7614L155.362 95.4464L160.435 95.1616L160.808 96.0932L160.601 103.59L160.52 112.878L161.402 121.598ZM150.128 129.713L145.765 128.761L142.781 127.698L138.853 127.081L134.52 127.031L134.185 126.449L134.619 125.69L135.393 124.865L135.376 123.56L135.021 123.205L135.391 121.921L135.69 121.297L136.144 119.051L135.648 118.221L135.047 116.932L134.593 115.609L134.279 114.668L133.474 114.049L133.058 108.131L137.587 108.021L142.887 107.625L146.943 107.62L147.156 107.802L146.772 108.628L147.557 109.799L147.394 110.528L148.039 111.428L147.456 111.993L147.288 113.102L146.391 114.044L145.993 115.327L145.623 116.708L145.017 117.42L145.332 119.088L149.905 119.035L154.406 118.761L154.348 119.513L154.067 120.536L154.482 121.339L155.173 121.952L155.404 122.843L155.531 123.377L155.113 125.86L156.847 129.054L150.128 129.713ZM134.151 127.103L130.002 128.356L125.369 132.734L120.261 135.237L117.332 138.057L116.065 140.738L115.953 144.824L115.952 144.834L116.177 147.703L117.059 149.516L115.277 149.639L111.575 148.285L107.544 146.366L106.196 143.628L105.193 139.459L102.25 135.98L100.63 132.484L98.252 128.327L94.7287 125.745L90.4331 125.574L86.9148 129.885L82.9677 127.863L80.5571 125.919L79.6178 122.666L78.2287 119.431L75.4971 116.551L73.1785 114.467L71.6351 112.248L71.2135 111.315L71.2162 111.054L75.4395 111.53L84.2906 112.394L89.0354 112.784L91.0368 86.8696L95.5023 87.1897L100.152 87.4692L104.623 87.6916L104.136 98.7625L105.332 99.4808L106.158 100.028L107.373 99.7053L108.01 100.869L109.683 101.357L111.126 101.715L113.269 101.64L113.888 103.089L115.418 102.513L116.675 103.38L118.142 103.827L118.833 103.077L119.493 103.965L121.164 103.652L121.879 103.942L122.746 103.686L123.569 103.223L124.519 103.213L126.247 103.268L127.304 102.882L128.584 103.447L130.638 104.529L130.935 104.952L131.958 104.849H132.888L132.7 107.783L132.677 107.784L132.689 107.958L132.677 108.14L132.702 108.139L133.13 114.234L133.976 114.884L134.713 117.056L135.33 118.379L135.768 119.116L135.359 121.163L135.064 121.78L134.62 123.308L135.022 123.71L135.035 124.726L134.345 125.461L133.774 126.449L133.775 126.449L133.774 126.449L134.151 127.103ZM71.1864 112.119L62.8664 111.073L62.4833 113.434L58.8786 112.94L63.4977 80.933L63.498 80.9331L63.4985 80.929L70.4906 81.8782L77.7425 82.7523L85.56 83.5374L90.8956 83.9922L90.7494 85.9454L90.6949 86.6732L88.708 112.4L84.3225 112.039L75.4767 111.176L70.8641 110.656L70.8567 111.39L71.1864 112.119ZM20.8261 96.581L19.5008 93.1318L15.2871 88.4786L13.4786 87.7925L11.9252 85.5056L8.38274 84.0892L7.52726 82.9594L7.81448 79.7846L5.00438 72.939L3.59125 64.2387L4.14456 62.9731L2.73464 60.5051L0.84235 54.9214L1.66801 50.2577L0.388751 46.5738L2.72951 42.3869L4.05945 37.7702L21.1052 42.8453L16.6166 59.4282L22.9883 69.1736L29.2908 78.5042L35.4166 87.2849L35.4073 87.765L35.5065 88.6037L35.6867 89.6729L36.079 90.8869L36.6734 92.024L35.1064 92.8446L34.1883 95.3809L32.9665 96.5143L33.0075 97.6367L32.9993 98.5785L33.6382 99.4748L33.0224 100.302L32.3814 100.161L32.3737 100.172L26.2907 99.4661L20.9079 98.6724L20.8261 96.581ZM12.5609 14.1608L12.978 9.38756L14.0289 4.0924L18.6246 6.58459L18.9856 11.7232L20.6852 10.2547L21.4685 5.4033L21.1241 0.484198L31.887 3.60968L42.8215 6.38585L41.1667 13.4866L39.4119 21.4441L39.5688 22.3872L39.3547 23.1806L31.3681 21.2551L29.8335 21.4726L28.8869 20.9555L27.9422 21.2234L26.3718 21.4422L24.6193 20.8793L24.6193 20.8793L24.6192 20.8793L23.5761 21.0873L22.784 21.0575L22.2982 20.6319L20.9002 19.951L19.9152 19.8683L18.2484 20.0116L17.3359 19.7571L16.6001 19.3335L16.5541 18.585L16.7384 17.6009L16.3101 16.217L15.2489 15.5297L14.4533 14.7186L13.2474 14.3087L12.5609 14.1608ZM126.837 15.7581L126.824 13.4986L127.802 13.4642L128.509 16.5916L129.82 17.6354L132.573 17.9383L136.55 18.7397L140.45 20.4086L143.584 19.4771L148.003 20.5675L144.516 22.5306L141.803 25.0438L139.168 27.6811L139.192 28.4813L138.148 28.8506L138.32 32.0553L136.424 33.38L135.81 34.6124L136.726 35.6947L136.478 37.0988L136.532 38.6722L136.445 40.0384L137.805 41.2039L138.319 41.2382L139.647 41.9793L140.088 42.3184L140.406 42.9232L141.526 43.8901L142.949 44.6635L143.079 45.0446L143.161 46.4099L143.262 46.872L137.958 47.0111L131.819 47.2321L126.107 47.392L121.688 47.3871L121.768 42.1454L121.291 36.5087L120.551 36.0331L120.203 35.2421L120.393 34.5797L121.324 33.9258L121.393 33.1584L121.407 33.158L121.408 32.9923L121.426 32.8014L121.41 32.8018L121.416 31.9041L121.16 30.9852L120.835 30.0558L120.654 28.8992L120.615 27.5523L120.481 27.2273L120.337 25.559L120.328 24.758L120.256 24.0499L120.07 22.8665L119.594 21.6224L119.164 20.5764L119.112 19.5487L119.077 18.4229L119.216 17.6955L119.254 16.9503L118.899 16.0908L118.869 15.7353L126.837 15.7581ZM139.556 28.7269L143.285 27.3955L145.736 29.169L145.867 29.265L146.115 29.122L146.124 29.117L146.632 29.2374L147.024 30.2626L150.695 31.0707L153.065 31.9181L153.128 31.9406L153.176 31.9369L154.288 31.8544L154.953 31.8609L155.247 32.7614L156.258 33.049L156.611 33.6871L156.44 34.0936L156.303 35.3027L156.304 35.3027L156.303 35.3052L157.179 35.2756L156.993 36.0989L156.994 36.0994L156.993 36.1016L157.647 36.7827L156.228 39.0093L157.1 39.8996L159.839 35.7839L160.079 35.752L158.481 40.1208L157.908 44.2572L157.408 47.5868L157.402 47.6247L158.189 50.4096L158.202 51.6303L158.16 51.6333L158.162 51.6474L155.075 51.865L150.629 52.1925L146.392 52.4645L145.948 51.6471L144.544 51.1772L144.248 50.3514L144.058 49.8721L143.986 48.7558L144.376 48.2502L143.725 47.2836L143.515 46.3741L143.433 44.9993L143.241 44.4167L141.744 43.608L140.689 42.6979L140.367 42.0837L139.853 41.6891L138.423 40.8883L137.947 40.8565L136.812 39.8836L136.888 38.6776L136.835 37.124L137.106 35.5921L136.233 34.5613L136.702 33.6199L138.437 32.4081H138.696L138.518 29.0975L139.556 28.7304L139.556 28.7269ZM154.913 23.4576L154.004 26.3305L156.48 26.9081L159.558 28.8833L163.04 27.1893L166.751 26.2687L167.761 27.7544L169.238 27.8506L169.413 27.2456L170.296 27.2505L169.964 27.7414L172.131 29.6632L169.005 30.5441L165.614 30.3043L162.57 31.8226L159.818 32.6423L157.831 36.4575L157.383 35.991L157.628 34.904L157.627 34.904L157.628 34.9015L156.701 34.9329L156.778 34.2103L157.007 33.6672L157.007 33.6661L157.007 33.6647L156.498 32.7446L155.53 32.4683L155.214 31.5046L154.279 31.4964L153.177 31.5798L150.807 30.7316L147.288 29.9537L146.898 28.9316L146.578 28.8567L148.964 27.5126L152.009 25.3939L154.913 23.4576ZM160.201 56.6228L160.362 56.7539L161.94 56.5673L163.036 55.8214L167.62 55.3583L171.478 54.8748L172.138 60.3225L173.247 69.7872L173.006 70.1167L173.526 71.272L173.441 71.5464L172.746 71.6403L172.121 72.2151L170.917 72.1249L170.953 73.3464L170.404 73.8094L169.937 74.8328L169.316 75.0847L168.552 76.8067L167.798 76.5039L167.315 75.5996L166.495 77.1034L166.148 77.6527L165.157 77.1077L164.036 77.8435L163.804 78.318L162.381 77.6088L161.446 78.3413L160.092 77.9637L160.102 78.6272L159.866 78.5893L159.902 77.597L160.386 76.0437L161.197 74.7268L161.447 73.7389L161.811 73.3342L161.77 72.4862L161.418 71.4385L161.053 71.0915L161.396 69.5192L160.201 56.6228ZM165.379 51.8176L165.081 47.9341L163.313 44.5331L163.266 42.1387L164.034 39.2346L164.83 37.2292L166.078 35.9087L166.591 37.5086L166.937 37.4776L167.314 34.6204L168.139 33.9271L168.423 31.7893L171.785 32.4626L174.997 34.2464L175.669 36.7108L175.662 39.2944L173.686 41.9237L174.157 43.5629L175.214 43.4824L177.41 40.6288L178.819 40.9349L180.023 44.0398L180.566 46.2792L179.073 49.6568L178.424 51.7976L177.317 54.1123L175.806 54.3676L173.853 54.6245L171.843 54.9184L171.785 54.4751L167.58 55.0019L163.411 55.4232L163.894 54.8809L165.379 51.8176ZM189.936 50.7678L192.528 48.7956L192.662 49.5336L192.786 50.2217L199.559 48.938L205.7 47.6651L211.337 46.4182L212.39 47.0501L212.932 47.3919L212.963 47.9905L213.488 48.8408L214.362 49.079L214.817 49.2158L214.579 49.4086L214.13 50.8545L213.507 51.5757L213.925 52.2869L213.6 53.0584L213.828 54.1431L214.352 54.2115L214.548 54.7413L216.154 55.8153L215.833 56.3975L214.997 57.3663L214.761 57.794L214.072 58.4394L213.069 58.3629L212.656 58.7855L212.448 59.2511L208.717 60.0917L204.99 60.8513L201.902 61.4986L200.524 61.78L196.469 62.5392L192.084 63.3204L191.212 58.2548L191.095 57.5636L189.936 50.7678ZM203.995 62.9458L204.273 63.3144L204.427 63.5191L204.217 64.391L201.624 63.2897L201.566 65.0716L201.166 65.6843L200.445 66.591L200 67.3273L199.605 67.1382L198.892 68.9994L198.783 69.5045L198.328 69.7611L197.684 69.5162L196.796 69.0789L196.56 70.6007L195.973 71.752L195.903 72.6078L195.202 73.4586L194.717 74.6462L194.715 74.6519V74.6519L194.714 74.6532L194.736 74.7239L194.915 75.3383L194.909 75.7625L194.378 76.2284L193.724 76.2567L193.253 76.7475L192.594 76.6096L192.594 76.6168L192.592 76.6163L192.577 77.2401L191.142 77.9122L190.513 77.5937L189.185 78.5134L188.53 78.2149L187.996 77.8227L187.698 77.0344L187.872 76.8147L187.618 76.8233L187.55 76.6427L187.402 76.8305L186.672 76.8553L186.169 76.2971L185.412 75.6671L185.081 74.8771L184.417 74.0634L184.296 72.9306L184.178 72.5422L185.166 72.2592L185.688 71.2661L185.565 69.9779L185.946 68.8147L186.301 68.8408L186.492 69.6094L187.129 69.1021L187.187 68.4369L187.204 67.4394L187.943 66.4295L188.443 66.4661L189.054 66.1911L189.578 65.7906L190.606 64.2219L190.579 63.5865L190.795 62.3001L190.995 60.7333V60.7332V60.7332L190.974 59.3407L190.711 58.7506L190.912 58.6099L191.794 63.7339L196.355 62.9212L196.876 65.9848L197.711 65.0757L198.318 64.3158L199.153 63.9239L199.601 63.2565L200.93 63.2339L201.364 62.6708L202.045 62.1383L203.351 62.2994L203.995 62.9458ZM184.417 87.3736L183.665 87.9089L183.279 88.4743L182.328 89.0877L181.297 89.4905L180.313 89.7871L179.706 90.6176L179.465 91.2515L178.479 91.7622L178.53 92.9398L176.189 93.2911L172.552 93.6715L166.48 94.2482L160.541 94.799L155.339 95.0911L151.11 95.3859L151.379 95.0822L151.214 93.4098L151.895 92.6214L152.01 91.6757L152.768 91.0818L153.222 90.1678L153.238 89.6624L153.497 88.2621L153.723 87.4215L153.788 86.9788L160.457 86.501L160.363 85.5938L160.997 85.5288L161.173 85.7823L164.149 85.3354L169.342 84.8761L172.009 84.739L173.339 84.5123L177.423 84.2539L180.533 83.6502L180.708 83.6298L187.408 82.8511L189.502 82.4204L189.501 82.9352L189.651 83.6365L188.829 83.9966L188.288 85.0245L187.514 85.0341L186.043 86.3022L185.591 85.8529L184.336 86.9782L184.417 87.3736ZM149.625 96.4392L149.661 97.3478L149.148 98.8397L148.664 99.167L147.809 100.051L147.36 101.291L146.405 103.393L146.365 104.842L146.998 106.317L146.855 107.264L142.873 107.269L137.569 107.665L133.058 107.774L133.268 104.493H133.078L131.94 104.494L131.107 104.577L130.938 104.336L130.991 99.3376L130.996 93.7247L130 87.8235L135.448 87.7843L140.591 87.6217L145.486 87.3959L150.7 87.4382L151.016 87.9387L150.121 89.1491L149.736 90.0406L152.877 89.8338L152.869 90.0788L152.485 90.8511L151.674 91.4863L151.555 92.4708L150.844 93.2926L151.009 94.9626L150.604 95.4214L150.531 95.4264L150.519 95.5168L150.267 95.8018L150.484 95.7867L150.463 95.9466L149.625 96.4392ZM40.5033 76.6367L40.4695 76.8112L40.4344 76.9861L40.4356 76.9863L39.6034 81.2842L39.3965 81.4132L38.9886 82.0966L38.5756 81.8471L37.7469 81.2429L36.6343 81.0138L36.0556 81.8069L36.3165 82.7067L36.069 83.8927L35.937 85.0076L35.9333 86.14L35.5691 86.8811L29.5843 78.3027L23.2848 68.9765L17.002 59.367L21.4486 42.9395L27.8616 44.5473L33.678 46.0056L33.6787 46.0057L33.8375 46.0455L33.8427 46.0298L33.8441 46.0261L46.0968 48.7423L40.5243 76.5379L40.5044 76.6369L40.5033 76.6367ZM61.4092 36.5493L61.4659 36.4505L61.9104 33.6871L69.7369 34.8697L76.0691 35.7975L83.4226 36.6331L90.0645 37.3461L89.1389 48.9386L88.3928 57.6269L88.1687 60.2372L83.9946 59.8453L75.3041 58.8857L70.968 58.3323L66.6359 57.7334L58.2041 56.2709L59.0887 51.0889L59.0893 51.089L59.1219 50.8944L59.1486 50.7379L59.1481 50.7378L61.5065 36.6455L61.4092 36.5493ZM91.0914 32.1002L98.6428 32.6643L106.938 33.1039L113.527 33.3527L121.035 33.1672L120.984 33.7293L120.086 34.3604L119.825 35.2676L120.269 36.2748L120.951 36.7135L121.413 42.1576L121.332 47.3869H120.772L120.754 49.0295L121.282 49.7864L121.192 50.3291L120.968 51.2438L120.583 52.2896L121.298 52.9616L121.294 53.2142L120.822 53.1589L120.535 52.9394L120.335 52.4334L119.12 51.9188L117.998 51.1394L116.432 51.1738L115.362 51.1308L115.014 51.3713L113.572 50.9086L112.475 50.1346L103.93 49.7974L97.584 49.4217L89.5077 48.7931L89.698 46.4096L90.4328 37.2067L90.8253 34.1638L91.0914 32.1002ZM143.344 47.2261L143.394 47.4297L143.937 48.2359L143.622 48.6447L143.705 49.9232L143.915 50.4771L144.267 51.4601L145.702 51.9402L146.001 52.4897L145.976 52.4913L146.136 52.7395L146.188 52.8345L146.197 52.8339L146.441 53.2108L146.947 53.4662L147.185 54.0691L147.92 54.508L148.32 54.9041L148.198 56.347L147.504 57.6589L147.271 58.0406L146.369 58.405L144.816 58.794L144.409 60.0199L145.026 60.4786L145.227 61.2346L144.742 62.2029L144.5 63.0714L143.402 64.0011L143.375 64.8006L143.033 64.5546L142.103 63.6133L137.234 63.9384L132.186 64.1263L128.251 64.2025L124.443 64.227L124.197 63.348L124.318 62.3327L124.219 61.3207L123.764 59.628L123.447 58.8636L123.169 58.6961L123.14 57.4608L122.856 56.4317L122.093 55.3653L122.105 54.9205L121.826 53.9353L121.648 53.387L121.656 52.8098L120.999 52.1917L121.306 51.3574L121.541 50.4005L121.657 49.7017L121.112 48.9195L121.125 47.7429L126.112 47.748L131.83 47.588L137.969 47.367L143.344 47.2261ZM153.815 83.6928L154.346 83.4898L155.079 84.1784L154.988 84.7011L155.132 85.5216L154.527 85.9838L153.571 86.6373L153.476 86.6441L153.467 86.7086L152.988 87.036L153.424 87.0048L153.376 87.3393L153.15 88.1834L152.911 89.4747L150.291 89.6472L150.42 89.3436L151.448 87.9548L150.896 87.0837L145.479 87.04L140.578 87.2659L135.441 87.4284L129.968 87.4677L129.978 84.8225H129.953L129.894 78.843L129.847 72.5593L128.617 72.0113L128.079 70.8673L127.78 70.3949L128.373 69.3589L128.2 68.3096L127.528 68.3304L126.555 67.6328L125.991 66.4475L125.279 65.6773L124.564 64.8032L124.562 64.7924L124.523 64.5826L128.256 64.5586L132.196 64.4823L137.253 64.294L141.964 63.9795L142.791 64.8156L143.343 65.2163L143.046 66.5958L143.546 68.3689L144.361 69.5388L145.281 70.493L146.393 71.2408L146.766 71.4491L147.171 72.4422L147.311 73.48L148.008 73.7596L148.796 73.3561L149.55 74.0744L149.382 75.0374L149.024 75.8821L148.766 77.0276L149.519 77.9179L150.548 78.7342L151.058 78.7218L152.316 79.8823L152.738 80.0047L153.136 81.2437L153.027 82.1322L153.815 83.6928ZM104.482 84.4774L99.8717 84.2489L95.7078 84.0005L96.2622 75.7415L96.7973 67.062L104.362 67.4918L110.12 67.7231L120.314 67.9288H126.357L127.418 68.6899L127.899 68.6751L128.001 69.2919L127.364 70.4044L127.761 71.0291L128.351 72.2827L129.493 72.7913L129.538 78.846L129.597 84.8246L125.724 84.8708L117.412 84.843L109.097 84.6525L104.482 84.4774ZM88.5234 60.2676L88.736 57.7921L89.4784 49.148L97.5597 49.7769L103.913 50.153L112.355 50.4863L113.389 51.2153L115.073 51.7639L115.467 51.4914L116.429 51.5297L117.89 51.4979L118.932 52.2217L120.058 52.7031L120.24 53.1622L120.684 53.5013L121.335 53.5776L121.486 54.0389L121.748 54.9652L121.734 55.4754L122.53 56.5882L122.785 57.4914L122.817 58.9002L123.163 59.1086L123.424 59.7321L123.866 61.37L123.959 62.3291L123.835 63.3762L124.135 64.4463L124.231 64.9584L125.012 65.9118L125.681 66.6256L126.132 67.5727H120.317L110.131 67.3672L104.379 67.1361L96.8204 66.7073L97.2139 60.9429L88.5234 60.2676ZM40.855 76.6999L41.8984 71.4951L46.446 48.8124L57.6784 50.8349L58.7382 51.0258L57.7933 56.561L66.4077 58.0552L63.1967 80.5245L56.7566 79.4993L48.0109 77.9859L40.855 76.6999ZM63.5489 80.5764L66.7596 58.11L70.9212 58.6853L75.262 59.2393L83.9585 60.1996L88.1382 60.592L88.138 60.5948L88.3161 60.6087L88.4927 60.6253L88.493 60.6224L96.8345 61.2706L96.4629 66.6794L95.9069 75.7186L95.3525 83.9764L94.4031 83.904L91.1014 83.6524L85.5929 83.1828L77.7816 82.3984L70.5359 81.5251L63.5489 80.5764ZM91.0639 86.5146L91.1605 85.2234L91.2505 84.0209L92.2556 84.0975L95.3287 84.3316L95.3285 84.3345L95.5041 84.345L95.6838 84.3587L95.684 84.3558L99.8523 84.6045L104.466 84.8332L109.086 85.0084L117.408 85.199L125.725 85.2269L129.621 85.1805L129.613 87.0947L129.612 87.4702L129.579 87.4704L129.611 87.6612L129.611 87.8263L129.639 87.8261L130.64 93.7395L130.635 99.3355L130.584 104.098L128.739 103.126L127.317 102.498L126.19 102.91L124.523 102.857L123.473 102.868L122.626 103.35L121.898 103.566L121.201 103.282L119.646 103.574L118.863 102.52L118.031 103.422L116.854 103.071L115.467 102.114L114.081 102.636L113.501 101.276L111.164 101.358L109.775 101.013L108.251 100.569L107.552 99.2894L106.222 99.6425L105.522 99.1797L104.501 98.5663L104.994 87.3536L100.171 87.1138L95.5257 86.8345L91.0639 86.5146ZM155.428 84.0182L155.216 83.2731L155.4 82.8755L156.495 83.0651L157.736 83.5405L158.456 82.872L158.181 81.6611L159.069 81.1532L160.01 80.5553L159.518 79.9835L159.936 79.1949L159.897 78.955L160.465 79.0461L160.455 78.4347L161.524 78.7327L162.423 78.0278L163.966 78.7967L164.313 78.0876L165.173 77.523L166.27 78.1261L166.802 77.2838L167.312 76.3492L167.545 76.7859L168.738 77.2652L169.583 75.3606L170.202 75.1096L170.695 74.03L171.314 73.5078L171.284 72.5095L172.249 72.5818L172.904 71.9781L173.713 71.8689L173.907 71.2492L173.416 70.1595L173.525 70.0105L174.933 69.9571L175.732 70.3758L177.104 71.5235L178.126 71.8063L178.924 72.1975L179.987 71.8873L180.837 72.11L181.795 71.639L182.484 71.4561L182.915 72.1367L183.808 72.5498L183.944 72.9859L184.075 74.2079L184.763 75.039L185.117 75.8855L185.913 76.5452L186.519 77.2167L187.113 77.1966L185.933 78.695L185.815 78.8442L184.445 79.754L184.445 79.7547L184.442 79.7565L184.395 80.2792L184.269 80.4933L184.038 80.884L182.879 81.7447L182.614 82.2383L182.554 82.3482L181.715 82.8046L180.455 83.3026L177.389 83.8992L173.307 84.1575L171.98 84.384L169.317 84.521L164.108 84.982L161.34 85.3973L161.17 85.1531L159.971 85.276L160.065 86.1721L154.276 86.5868L154.736 86.2723L155.52 85.6732L155.349 84.7008L155.389 84.4703L155.428 84.0182ZM201.792 61.8847L201.127 62.4041L200.752 62.8807L199.409 62.9038L198.912 63.6435L198.091 64.0287L197.441 64.8441L197.105 65.2093L196.705 62.8572L200.592 62.1295L201.792 61.8847ZM189.609 50.9683L190.846 58.2217L190.267 58.6274L190.619 59.4189L190.638 60.7134L190.443 62.2481L190.221 63.5643L190.245 64.1226L189.312 65.5458L188.888 65.8752L188.379 66.1045L187.772 66.0599L186.85 67.3203L186.832 68.4183L186.788 68.9187L186.704 68.9856L186.585 68.5045L185.695 68.4391L185.203 69.9377L185.324 71.1943L184.921 71.9588L183.969 72.2319L183.16 71.8577L182.646 71.0449L181.686 71.2993L180.799 71.7319L179.982 71.5178L178.957 71.8171L178.267 71.4792L177.273 71.201L175.946 70.0905L175.014 69.5977L173.59 69.6517L172.491 60.2804L171.887 55.2743L173.902 54.9798L175.859 54.7222L177.422 54.4557L180.225 55.2583L182.467 55.2322L185.51 53.9658L187.788 51.9733L189.609 50.9683ZM161.036 69.4972L160.663 71.2114L161.11 71.6365L161.415 72.5288L161.416 72.545L161.448 73.205L161.122 73.5673L160.879 74.564L160.071 75.876L159.555 77.5138L159.513 78.5327L159.467 78.5254L159.504 78.7541L159.498 78.891L159.527 78.8955L159.565 79.1337L159.089 80.0315L159.471 80.4756L158.885 80.8485L157.775 81.4829L158.063 82.7507L157.656 83.1286L156.607 82.7264L155.192 82.4781L154.837 83.2436L154.923 83.543L154.427 83.0776L153.988 83.2455L153.394 82.0683L153.499 81.2093L153.018 79.7156L152.495 79.5638L151.193 78.3623L150.667 78.3751L149.779 77.6743L149.152 76.9325L149.358 76.006L149.717 75.1575L149.933 73.948L148.858 72.9239L147.99 73.3688L147.636 73.2267L147.52 72.372L147.048 71.1992L146.579 70.9374L145.523 70.2318L144.645 69.3236L143.873 68.2146L143.413 66.5843L143.659 65.4431L143.709 65.4792L143.719 65.1614L143.74 65.0635L143.723 65.051L143.753 64.1708L144.814 63.2719L145.068 62.3467L145.606 61.2737L145.339 60.267L144.828 59.8876L145.092 59.0918L146.468 58.7474L147.513 58.3266L147.814 57.8351L148.547 56.4493L148.689 54.7682L148.155 54.2397L147.472 53.8255L147.228 53.2093L146.688 52.9364L146.666 52.9038L146.604 52.8078L150.653 52.5477L155.1 52.2201L158.223 52.0001L158.376 53.3555L159.81 56.2667L161.036 69.4972ZM118.511 15.7294L118.546 16.148L118.894 17.0127L118.864 17.641L118.72 18.3947L118.757 19.5632L118.812 20.6553L119.264 21.7543L119.722 22.9405L119.903 24.0955L119.973 24.7777L119.981 25.576L120.129 27.2852L120.261 27.6277L120.298 28.9208L120.485 30.1268L120.82 31.0918L121.06 31.9515L121.053 32.8106L113.529 32.9968L106.954 32.7481L98.6655 32.3091L91.1246 31.7456L91.5355 24.867L92.4148 14.3626L105.562 15.3004L118.511 15.7294ZM91.1804 24.8415L90.759 31.8937L90.6922 32.4119L90.1015 36.9919L83.4618 36.2792L76.115 35.4445L69.7893 34.5175L61.6148 33.2823L61.1332 36.2764L60.9523 36.0976L60.683 35.2031L60.0704 34.8611L59.2519 35.9498L58.4024 35.9677L56.0332 35.1555L55.8228 35.6954L54.5995 35.2669L53.8332 35.821L53.4543 34.4385L53.0831 33.4405L52.2869 33.1413L52.1607 32.7878L52.1943 31.2275L51.6161 30.3705L51.5148 28.53L51.1588 27.5405L50.5171 27.1799L49.8759 27.99L49.1081 28.417L48.6594 27.8843L48.8884 26.5887L49.4473 26.3066L49.4154 24.706L50.0808 23.3374L50.892 21.9594L49.5487 21.6186L48.7668 20.6494L48.0604 18.6735L47.5863 17.6203L46.8072 16.8846L46.3304 15.903L46.5573 14.8848L45.88 13.1431L46.8769 7.31098L57.9862 9.60375L69.3497 11.5603L80.7716 13.1433L92.0601 14.3313L91.1804 24.8415ZM45.5124 13.1803L46.1863 14.913L45.9559 15.9469L46.5153 17.0988L47.2906 17.8309L47.7304 18.8065L48.4518 20.8261L49.3461 21.9345L50.3444 22.1879L49.7673 23.1692L49.0578 24.6273V24.6274L49.0869 26.0897L48.5689 26.3512L48.2798 27.9864L49.0248 28.8708L50.1109 28.2666L50.6076 27.6393L50.87 27.7867L51.1607 28.5762L51.266 30.4882L51.8358 31.3328L51.8033 32.8457L52.0072 33.4166L52.8061 33.7168L53.1157 34.5476L53.6255 36.4107L54.6574 35.6645L56.0297 36.1452L56.241 35.6032L58.3467 36.325L59.4325 36.3022L60.1683 35.3235L60.3836 35.4438L60.6374 36.2865L60.9636 36.6106L60.9632 36.6114L61.0653 36.7115L61.1246 36.7704L58.7976 50.6746L46.3415 48.4318L41.5546 47.3707L33.9421 45.6831L36.3331 35.7901L37.0819 34.238L36.9041 33.3051L36.2728 32.777L36.4606 32.0215L37.294 30.9224L38.43 30.004L39.4373 28.2921L40.3039 26.9721L40.9127 26.2847L40.8952 25.2415L40.3069 24.597L39.6714 23.3737L39.9326 22.4051L39.7744 21.4536L41.514 13.5653L43.1677 6.46924L46.5285 7.2355L45.5124 13.1803ZM12.4777 14.5072L13.1428 14.6493L14.2584 15.0284L15.0085 15.7931L16.0081 16.4457L16.3722 17.6219L16.1959 18.5628L16.2566 19.5464L17.1776 20.0768L18.2147 20.3718L19.9156 20.2256L20.8049 20.3003L22.0818 20.9156L22.6444 21.4085L23.6046 21.4447L24.5983 21.2465L26.3404 21.8061L28.0036 21.5743L28.844 21.3378L29.7665 21.8417L31.3507 21.6173L39.3609 23.5484L40.0017 24.7818L40.5414 25.3821L40.5544 26.1523L40.0289 26.7455L39.1351 28.1041L38.1559 29.7678L37.0533 30.6591L36.1327 31.8647L35.8735 32.9072L36.5781 33.4967L36.7102 34.1892L36.0042 35.6525L36.0041 35.6528L35.996 35.6696L33.5911 45.6166L21.3706 42.5528L4.10422 37.412L3.80031 34.0829L6.90163 28.633L9.17945 22.4895L12.4777 14.5072ZM32.5419 100.561L33.1707 100.699L34.0788 99.4793L33.3564 98.4659L33.3634 97.6318L33.3283 96.6645L34.4938 95.5833L35.3941 93.096L37.1543 92.1742L36.413 90.7625L36.0357 89.6007L35.8588 88.5531L35.7637 87.7474L35.773 87.2735L36.2892 86.2231L36.2918 85.0392L36.4202 83.95L36.6832 82.6927L36.4462 81.8755L36.7869 81.4088L37.5995 81.5761L38.3784 82.1433L39.1107 82.5865L39.6579 81.6698L39.9234 81.5043L40.7861 77.0493L47.9491 78.3365L56.6983 79.8506L63.146 80.877L58.5261 112.889L48.9868 111.433L38.6137 105.434L32.0438 101.303L32.5419 100.561ZM197.725 107.331L196.931 107.192L196.567 107.088L196.409 106.073L195.705 105.006L194.785 104.569L194.87 104.186L194.448 103.549L193.875 102.257L192.145 101.341L191.375 100.073L190.094 99.3167L189.657 98.6566L187.787 97.5482L187.098 96.6542L185.915 94.9205L185.001 94.6804L183.762 94.0041L184.277 92.9867L184.691 92.4809L185.108 92.2591L187.467 90.9245L191.75 90.3058L193.827 90.2184L193.991 90.9002L194.505 90.3293L195.221 91.003L195.338 91.7859L200.661 90.9126L206.776 95.1791L205.712 99.3668L202.21 103.62L197.725 107.331ZM207.001 94.9019L200.746 90.5378L195.637 91.3761L195.555 90.8283L194.483 89.8206L194.179 90.159L194.104 89.8503L191.726 89.9505L187.35 90.5817L184.937 91.947L184.521 92.168L182.159 92.471L178.884 92.891L178.844 91.9739L179.752 91.5042L180.008 90.8075L180.53 90.0936L181.413 89.8268L182.475 89.4129L183.532 88.7346L183.923 88.1622L184.812 87.5292L184.725 87.1069L185.578 86.3425L186.025 86.7873L187.648 85.3886L188.504 85.378L189.086 84.2726L190.062 83.8453L189.857 82.9167L189.859 82.3577L190.647 82.2506L197.488 81.3228L206.601 79.6252L211.412 78.5812L216.124 77.5189L217.964 82.783L215.999 87.5093L211.925 90.6322L208.484 94.291L207.001 94.9019ZM211.338 78.2309L206.535 79.2737L197.434 80.9689L191.66 81.7538L189.86 81.9979L189.86 81.9833L189.653 82.026L189.504 82.0462L189.504 82.0567L187.35 82.5L181.838 83.1401L181.853 83.1344L182.816 82.6125L182.817 82.6108L182.819 82.6097L182.942 82.3795L183.155 81.9885L184.308 81.1294L184.579 80.668L184.745 80.3887L184.784 79.9572L186.034 79.1272L186.035 79.1253L186.036 79.1246L186.522 78.5128L187.438 77.3613L187.697 78.0525L188.334 78.5181L189.219 78.9264L190.538 78.0126L191.133 78.3161L192.927 77.4756L192.927 77.4691L192.93 77.4679L192.94 77.0549L193.37 77.147L193.88 76.6165L194.516 76.5889L195.263 75.9314L195.263 75.9257L195.268 75.9214L195.277 75.2787L195.092 74.6694L195.497 73.6637L196.207 72.7986L196.249 72.7479L196.322 71.8511L196.903 70.7117L197.074 69.6123L197.542 69.8423L197.557 69.8482L198.356 70.1539L198.357 70.1533L198.359 70.154L199.032 69.7731L199.099 69.7355L199.107 69.6955L199.229 69.1172L199.803 67.629L200.14 67.7907L200.733 66.8061L201.457 65.8951L201.921 65.1853L201.965 63.8231L204.467 64.8858L204.757 63.6699L205.255 63.7145L205.757 63.9407L205.544 64.6613L206.718 64.8346L207.625 65.2697L208.024 65.6169L208.062 65.8772L208.076 66.2664L207.451 66.9391L207.292 67.835L207.172 68.5104L207.172 68.5104L207.172 68.511L207.326 68.5541L208.053 68.7607L208.635 68.417L208.976 69.0065L208.99 69.0304L208.99 69.0305L209.004 69.0541L209.041 69.0676L212.477 71.5756L213.917 74.0425L215.953 77.1903L211.338 78.2309ZM214.641 66.2793L212.763 59.4196L212.955 58.9887L213.207 58.7306L213.813 58.7768L213.431 59.3296L213.821 60.4685L213.821 60.4687L213.882 60.6468L213.914 60.6335L215.44 63.3131L217.155 65.702L214.641 66.2793ZM215.803 27.4354L222.744 25.5864L222.704 27.0608L223.223 27.7853L223.251 28.4019L222.591 29.223L221.832 29.7427L221.847 30.4181L221.995 31.3454L221.875 32.7539L221.681 33.3094L221.522 34.6056L221.736 35.9646L221.703 36.3515L221.991 37.8354L221.85 38.7031L222.173 39.0336L219.235 39.7138L218.231 35.062L217.582 35.1784L217.551 35.1319L217.604 34.2624L216.861 32.8933L216.972 31.6305L216.515 30.7983L216.008 29.1979L215.985 28.4583L215.803 27.4354ZM220.089 49.8902L219.918 49.5485L220.745 48.7267L220.194 48.2503L219.393 44.1453L222.441 43.464L226.179 42.5957L226.989 45.4379L226.961 46.182L225.293 46.9138L222.92 47.8332L220.089 49.8902ZM228.901 36.3454L228.463 36.3736L227.622 37.058L227.366 37.6855L222.578 38.9372L222.23 38.5826L222.353 37.83L222.062 36.3324L222.095 35.9521L221.882 34.5988L222.024 33.4081L222.218 32.8499L222.354 31.3318L222.202 30.3979L222.192 29.9275L222.814 29.502L223.613 28.5203L223.574 27.6638L223.063 26.9508L223.107 25.3625L223.103 25.2274L223.1 25.2265L223.111 23.987L224.089 23.5679L227.394 33.3518L227.396 34.013L228.424 34.6531L228.89 35.4738L228.89 35.4738L228.89 35.4738L229.1 35.3835L229.127 35.3719L228.901 36.3454ZM224.399 23.3725L225.708 21.9824L226.378 18.9779L226.29 14.2981L227.86 9.46284L229.479 10.4887L231.735 8.74532L233.759 9.73032L236.173 17.2692L239.729 19.5643L240.492 21.7197L237.321 24.6225L233.877 27.1182L230.269 31.8689L229.236 34.9373L229.042 35.0208L228.689 34.3988L227.752 33.8148L227.749 33.2925L224.399 23.3725Z" fill="black"/>
</svg>
