<svg width="216" height="144" viewBox="0 0 216 144" fill="none" xmlns="http://www.w3.org/2000/svg">
<path d="M215.795 21.2696L214.982 19.2824C214.661 18.4967 214.002 17.9243 213.211 17.7029C212.884 16.9739 212.449 16.4258 211.626 16.1153L209.674 10.4291C209.452 9.78382 208.996 9.24922 208.394 8.92522L206.574 7.94782C206.169 7.73182 205.732 7.62652 205.297 7.62652C204.695 7.62652 204.101 7.82632 203.61 8.21782C203.102 8.04232 202.538 8.02882 202.033 8.17192L201.128 8.42032C200.229 8.66602 199.516 9.35992 199.252 10.2536L198.207 13.7582C198.148 13.9607 198.11 14.1686 198.099 14.3792L197.81 19.6037L197.297 20.9969L196.32 21.5963C195.693 21.9824 195.245 22.6115 195.091 23.3324L186.691 25.6949L183.179 25.8596C182.466 25.892 181.796 26.2052 181.318 26.729L178.602 29.6828C178.087 30.2444 177.954 30.7682 177.881 31.454L177.082 32.3423C176.512 32.9741 176.275 33.8381 176.445 34.6751L176.642 35.6741L174.601 36.8216L171.777 36.8486C170.861 36.8486 170.726 36.9485 168.469 38.6306C167.462 39.3839 167.108 40.7339 167.616 41.8841L167.916 42.5645L165.372 45.5318C164.6 45.9341 163.112 46.709 162.95 46.7927C162.607 46.9601 162.559 46.9817 160.558 48.7772C159.897 48.7772 159.327 48.9068 158.757 49.3496L158.628 49.2713L158.73 48.8744L159.88 47.3786C160.218 46.9385 160.415 46.4039 160.437 45.8477L160.547 43.2773C160.561 42.9425 160.515 42.6104 160.407 42.2945L158.99 38.1176C158.725 37.3346 158.115 36.7163 157.334 36.4382L156.716 36.2195C156.87 35.1962 156.659 34.7615 156.198 33.9812C156.341 33.3089 156.23 32.5853 155.836 31.967L154.883 30.4685C154.524 29.9042 153.97 29.4938 153.325 29.3156L151.735 28.8809L151.203 28.3787C150.646 27.8495 150.08 27.6848 149.31 27.6281C148.919 26.7911 148.127 26.2106 147.204 26.0945L145.938 25.9352C145.643 25.5248 145.238 25.2035 144.769 25.0118L143.462 24.4772C143.132 24.3422 142.784 24.2747 142.439 24.2747C141.893 24.2747 141.35 24.4421 140.886 24.7661L140.481 25.0523L139.717 24.9821L139.288 24.6338C140.808 22.8356 139.728 20.4812 137.768 20.1356L136.904 19.9844C136.102 19.8467 135.321 20.0735 134.735 20.5487L133.312 21.7097C134.047 19.9385 132.754 17.9729 130.82 17.9729H130.418C129.981 17.6732 129.462 17.5085 128.922 17.5004L127.416 17.4842C126.878 17.2169 126.552 17.0279 125.863 17.0279C125.269 17.0279 124.783 17.1953 124.232 17.5706L123.811 17.2034C123.274 16.7309 122.564 16.4771 121.77 16.5473C121.257 15.9722 120.76 15.5888 119.923 15.4889L117.998 15.254C117.399 15.1811 116.764 15.3107 116.224 15.6563L115.484 15.4133L115.347 14.336C115.231 13.4234 114.656 12.6323 113.827 12.2381L112.873 11.7872C112.209 11.474 111.445 11.4443 110.754 11.7062C109.801 12.0707 109.439 12.6836 109.091 13.499C80.3142 15.1055 42.5088 7.41322 21.5811 0.485022C19.9017 -0.0522784 18.1197 0.860321 18.0198 3.56032L15.2658 1.60552C13.5378 0.382419 11.1186 1.52992 11.0052 3.66832C10.7649 8.37442 10.6866 10.1834 10.7136 11.0258C10.6326 11.6441 10.2276 13.8419 9.8631 15.7184L7.0605 24.2558L3.2562 30.6818C3.0159 31.0868 2.8863 31.5485 2.8809 32.0183L2.8134 36.7271L2.0871 40.715L0.440099 43.253C0.0296989 43.8848 -0.0972015 44.6597 0.0890986 45.3887L0.904499 48.599C0.583199 49.0256 0.396898 49.5413 0.367198 50.0759C0.199798 53.2511 0.377999 53.8586 0.472499 54.1826C0.537299 54.404 0.6831 54.8927 1.728 56.6693V58.1516C1.728 58.5458 1.8144 58.9346 1.9791 59.291C2.4138 60.2252 2.7135 60.7679 2.9349 61.1081L2.6109 63.8135C2.5002 64.7234 2.8296 65.5658 3.6207 66.2597C3.1266 67.0022 3.0267 67.9499 3.375 68.7869C4.3335 71.1089 5.7942 74.6432 6.3558 76.0148C6.2883 76.4576 6.1776 77.0786 6.1155 77.4296C5.9427 78.4124 5.9022 78.6446 5.9022 78.9551C5.9022 80.9639 7.047 81.4796 11.1834 82.889L12.5442 84.914C12.8763 85.4081 13.3623 85.778 13.9239 85.967C14.1399 87.1847 15.1578 88.1081 16.4079 88.1891C16.9695 88.9775 17.334 89.477 17.5797 89.8037C17.7093 90.5111 17.9145 91.9826 18.0603 93.1949C18.2115 94.4504 19.2186 95.4359 20.4795 95.5574L27.4482 96.2378C27.6615 96.767 28.0422 97.2287 28.5471 97.5392C30.834 98.9378 42.255 105.92 42.6222 106.131C43.173 106.452 43.4268 106.6 56.4489 108.553C57.7989 108.763 59.1273 107.899 59.4702 106.541L62.4024 106.852C64.7568 109.6 67.1625 112.446 68.0319 113.521C68.0994 114.136 68.1912 115.2 68.2506 116.088C68.3073 116.912 68.7393 117.665 69.4197 118.132L76.0347 122.655C77.2659 123.502 78.975 123.176 79.8093 121.915L81.4671 119.415L83.3193 119.382C84.3021 120.422 85.2687 121.456 85.6926 121.934C85.9437 122.638 86.4702 124.24 86.6565 124.874C86.6997 125.73 87.0858 126.259 90.5391 129.926C90.5796 130.482 90.585 131.146 90.7713 131.656C91.341 133.198 92.016 135.088 92.1186 135.445H92.1213C92.7828 137.977 97.3647 139.108 97.416 139.125C97.6347 139.179 97.9047 139.241 99.8568 139.308L100.516 139.843C101.223 140.421 102.2 140.623 103.129 140.294L104.495 139.808C105.972 139.281 106.696 137.605 106.051 136.152L105.011 133.843L104.782 131.481C105.502 130.649 105.451 129.98 105.5 128.87L108.132 126.327C108.386 126.321 108.64 126.281 108.886 126.202L110.484 125.7C110.859 125.579 111.208 125.384 111.496 125.114L115.382 121.561C115.409 121.54 115.965 121.394 116.208 121.286L118.506 120.273L125.45 120.919C126.02 120.973 126.614 120.84 127.132 120.522L128.582 121.556C128.693 121.634 128.812 121.707 128.933 121.766L130.834 122.728C131.811 123.216 132.913 123.07 133.707 122.449C134.514 122.728 135.348 122.611 136.029 122.188C136.164 122.279 136.269 122.358 136.339 122.412C137.524 123.581 138.734 123.281 140.265 122.625C140.376 122.579 140.476 122.533 140.559 122.498C142.533 121.945 143.648 119.363 140.586 117.082C140.962 116.582 141.24 116.269 141.41 115.718C141.45 115.718 142.738 115.705 142.781 115.697C143.454 116.126 144.275 116.231 145.028 115.996L149.755 114.533L151.862 114.981L154.07 117.087C155.08 118.043 156.63 118.075 157.672 117.198C157.783 117.106 159.789 115.384 159.929 115.351C163.698 118.815 163.752 118.831 164.387 119.039C164.481 119.069 164.565 119.096 164.808 119.145C164.589 121.801 164.589 122.001 164.589 122.117C164.589 123.108 165.013 123.789 165.607 124.269C165.337 125.033 165.429 125.876 165.845 126.567L167.314 128.989C167.738 129.696 168.283 130.007 169.071 130.247L171.085 133.746C171.55 134.554 172.398 135.064 173.326 135.099H173.34L175.468 137.494C176.183 138.301 177.306 138.606 178.33 138.266L180.622 137.513C181.367 137.267 181.972 136.705 182.272 135.982L182.79 134.729C182.93 134.392 182.998 134.032 182.993 133.665L182.909 126.059C182.903 125.59 182.777 125.131 182.539 124.726L179.766 119.995L179.666 117.859C179.642 117.311 179.45 116.785 179.118 116.347L175.365 111.415L173.664 107.084L174.388 103.053L175.468 100.377L180.625 95.0741C181.021 94.6664 181.283 94.1426 181.362 93.5783L181.578 92.0906L181.969 91.5101L183.481 91.1942C184.54 90.9728 185.36 90.1439 185.571 89.0882C185.693 88.5023 185.776 88.0784 185.833 87.7652C186.114 87.4007 186.567 86.8337 187.007 86.291L188.174 85.67C188.406 85.5431 188.617 85.3892 188.8 85.2002L190.399 83.6126C191.117 82.8998 191.387 81.836 191.057 80.8505L191.843 80.1269C192.505 79.514 192.815 78.6068 192.672 77.7158L192.459 76.3793C192.386 75.9338 192.208 75.5288 191.951 75.1913C192.213 74.3111 192.005 73.3769 191.435 72.6992C191.354 72.1511 190.723 70.6823 190.512 70.145C190.512 70.1396 190.512 70.1342 190.517 70.1288L192.116 65.7413C192.199 65.5037 192.256 65.2553 192.272 65.0042L192.488 61.8695C192.518 61.4537 192.448 61.0406 192.297 60.6599C192.37 60.5384 192.44 60.4088 192.496 60.2765L193.652 57.563C194.333 57.9167 195.153 57.9707 195.904 57.671C196.876 57.2795 197.535 56.3561 197.591 55.3085L197.718 52.8461C197.734 52.5491 197.702 52.2548 197.624 51.974L202.252 48.6692C203.013 48.1238 203.434 47.2274 203.377 46.3067C204.252 45.791 205.913 44.8082 206.266 44.603C207.36 44.0414 207.56 43.2503 208.065 41.2253C208.302 40.256 207.995 39.2354 207.249 38.5658C206.836 38.1905 206.472 37.8611 206.15 37.5722C206.207 37.1051 206.145 36.6245 205.956 36.179L205.57 35.288L206.04 33.6329C206.067 33.533 206.091 33.4331 206.104 33.3305L206.285 32.2208C207.028 31.6781 208.027 30.9545 208.373 30.7061C209.237 30.2066 209.544 29.4101 209.76 28.4786L210.505 27.6119C211.094 27.5687 211.653 27.3365 212.096 26.945L215.077 24.3179C215.941 23.5565 216.23 22.3334 215.795 21.2696ZM210.311 24.92L209.315 24.8633L207.257 27.2447C207.257 27.2447 207.036 28.3679 206.979 28.3895C206.923 28.4111 203.796 30.6926 203.796 30.6926L203.437 32.8931L202.705 35.4662L203.456 37.2401C203.456 37.2401 202.797 38.2634 202.832 38.2634C202.867 38.2634 205.432 40.5773 205.432 40.5773C205.432 40.5773 205.03 42.2054 204.979 42.227C204.933 42.2486 201.447 44.306 201.447 44.306L197.945 45.5642L194.403 48.6503L194.273 49.2362L199.066 46.1015L200.667 46.4768L195.396 50.2379L193.539 50.9075L195.005 52.7084L194.878 55.1708L192.199 52.6625L191.984 51.2828L190.253 51.5339L189.605 50.4053L190.339 46.979L189.17 46.6442L187.747 44.5112L185.155 44.6786L187.356 46.9358V51.2828L188.525 50.948L189.648 52.3277L189.432 53.0378L191.724 55.1708L189.994 59.2262L187.531 57.806L188.047 59.2262L189.778 61.6913L189.562 64.826L187.963 69.2135L187.488 68.4197L187.747 65.4956L185.371 63.7406L184.982 59.9795L183.902 59.3099L184.334 63.1547L186.062 65.7872L186.408 70.3016L187.963 71.0954L188.741 73.061L188.006 73.52L189.346 74.438L187.456 76.112L188.838 76.8248H189.788L190.004 78.1586L188.017 80L186.764 80.2079L188.492 81.7118L186.894 83.3021L185.255 84.1769C185.255 84.1769 183.268 86.6015 183.268 86.7257C183.268 86.8499 182.922 88.5644 182.922 88.5644L180.33 89.1071L178.991 91.1132L178.691 93.203L173.159 98.8838L171.777 102.31L170.87 107.367L172.984 112.759L176.961 117.984L177.09 120.784L180.201 126.094L180.287 133.698L179.769 134.953L177.476 135.704L174.585 132.445L173.416 132.402L170.87 127.968L169.614 127.593L168.148 125.168L169.012 122.83C169.012 122.83 167.281 122.368 167.281 122.12C167.281 121.866 167.581 118.232 167.581 118.232L166.72 116.725C166.72 116.725 165.335 116.52 165.208 116.474C165.075 116.431 160.715 112.419 160.715 112.419L158.598 112.881L155.92 115.138L153.155 112.503L149.612 111.749L144.212 113.421L143.219 110.956L142.528 111.541L142.657 113.008L139.288 113.051L137.646 113.888L135.661 114.266L133.934 113.512L133.458 115.267L135.097 115.057L135.875 114.598L136.736 115.605L138.335 114.185L138.812 114.935L136.736 117.695C136.736 117.695 139.936 119.909 139.806 119.909C139.684 119.909 138.434 120.508 138.235 120.508C138.213 120.508 138.208 120.503 138.208 120.495C138.208 120.37 135.397 118.529 135.397 118.529L134.579 119.909L133.107 119.282L132.027 120.33L130.129 119.369L126.5 116.777L125.636 117.571L125.68 118.24L118.036 117.53L115.098 118.823L113.716 117.695L112.763 118.405L113.543 119.577L109.652 123.13L108.057 123.632L107.15 123.508L102.829 127.687L102.743 129.691L101.965 130.614L102.346 134.556L103.569 137.27L102.203 137.756L100.837 136.643C100.837 136.643 98.3205 136.576 98.0316 136.503C97.7427 136.43 94.7241 135.042 94.7241 134.834C94.7241 134.624 93.285 130.728 93.285 130.728L93.1419 128.776C93.1419 128.776 89.3322 124.742 89.3322 124.534C89.3322 124.326 88.182 120.846 88.0389 120.565C87.8958 120.287 84.4425 116.671 84.4425 116.671L79.9848 116.742L77.5386 120.427L70.9236 115.905C70.9236 115.905 70.7076 112.775 70.5645 112.424C70.4214 112.076 63.7335 104.284 63.7335 104.284L57.1887 103.587L56.8296 105.882C56.8296 105.882 44.3178 104.006 43.9587 103.795C43.5996 103.59 29.9376 95.2361 29.9376 95.2361L30.0105 93.7754L20.7225 92.8736C20.7225 92.8736 20.2284 88.7669 20.0151 88.5563C19.8018 88.3457 17.6418 85.2866 17.6418 85.2866L16.5645 85.4945V83.888L14.7663 83.402L12.8979 80.6183C12.8979 80.6183 8.5833 79.1576 8.5833 78.947C8.5833 78.7418 9.1584 75.8177 9.0855 75.6098C9.0126 75.4019 5.8509 67.7474 5.8509 67.7474L7.3602 65.9384L5.2758 64.1294L5.6349 61.1378L6.426 60.6518L6.2829 59.399C6.2829 59.399 5.3109 59.7797 5.2758 59.7473C5.0598 59.5394 4.4118 58.1462 4.4118 58.1462V55.9187C4.4118 55.9187 3.1887 53.9018 3.0456 53.4131C2.9025 52.9271 3.0456 50.2109 3.0456 50.2109L3.8367 49.2362L2.6946 44.7191L4.6359 41.7275L5.4999 36.989L5.5728 32.0561L9.5283 25.3763L12.4767 16.3988C12.4767 16.3988 13.4838 11.2499 13.4109 11.042C13.338 10.8341 13.6998 3.80602 13.6998 3.80602L19.3806 7.84252L19.4535 9.65152L18.5193 11.1824L19.2375 12.2948L20.5308 8.88472L20.736 3.05002C42.3846 10.1564 80.784 18.1295 110.921 16.091L111.71 14.228L112.663 14.6789L113.017 17.4437L116.651 18.6425L117.669 17.9351L119.594 18.17L121.076 19.8629L122.032 19.2419L123.671 20.6783L124.643 20.5703L125.861 19.736L126.768 20.1869L128.89 20.2085L129.422 20.681H130.82L128.474 22.0094L121.964 27.8144H123.514L126.5 26.2727L126.743 27.0233L126.457 27.8171L128.539 28.2032L133.099 25.3763L136.442 22.6547L137.306 22.8059L134.557 26.0837L134.668 26.7911L136.35 25.7408L138.656 27.6038L141.223 27.8387L142.439 26.9828L143.745 27.5174L144.32 28.4597L146.864 28.781L147.485 30.2174L149.345 30.3443L150.363 31.3082L152.599 31.9292L153.552 33.4277L153.02 33.9191L154.062 35.6984L153.795 37.4993L152.159 39.581L152.223 41.1659L153.066 41.5952L155.28 38.5955L156.43 39.0032L157.847 43.1801L157.737 45.7505L156.254 47.6783L155.347 51.1478L157.054 51.488L159.089 52.7084L160.418 51.488H161.595C161.595 51.488 164.074 49.2605 164.16 49.2173C164.249 49.1741 167.081 47.6972 167.081 47.6972L171.072 43.0424L170.087 40.8068C170.087 40.8068 171.758 39.5594 171.793 39.5594C171.828 39.5594 175.324 39.527 175.324 39.527L179.674 37.0781L179.094 34.1567L180.498 32.5961L180.59 31.5188L183.308 28.565L187.126 28.3841L197.421 25.4843L197.732 23.8994L199.508 22.8113L200.483 20.1599L200.796 14.5331L201.841 11.0285L202.746 10.7801L203.21 12.1382L205.3 10.3292L207.122 11.3066L209.539 18.3374L210.673 18.6398L211.453 20.357L212.487 20.3003L213.295 22.2929L210.311 24.92ZM143.869 31.2029C143.756 31.2029 141.291 32.1452 141.291 32.1452L139.887 32.5043L137.425 37.6046V38.6846L140.403 34.2782L140.06 36.4409L138.429 43.4258C138.429 43.4258 138.888 47.9996 138.915 48.0806C138.945 48.1643 140.289 52.6544 140.289 52.6544L141.091 53.2079C141.091 53.2079 144.758 50.6591 144.728 50.5754C144.698 50.4917 144.185 45.3644 144.158 45.2834C144.126 45.1997 142.698 41.2361 142.698 40.9877C142.698 40.7393 143.815 35.6957 143.815 35.6957L145.387 34.8911L146.764 31.2056L145.303 31.7051C145.298 31.6997 143.983 31.2029 143.869 31.2029ZM50.0472 135.728L48.1626 134.589L44.1936 129.537C43.4727 128.624 42.2145 128.233 41.0346 128.711L39.8736 129.194L38.988 128.281C38.6532 127.936 38.232 127.685 37.7676 127.558L37.7298 127.547V110.286C37.7298 109.311 37.206 108.415 36.3555 107.934L34.6275 106.96C34.1199 106.679 33.5502 106.557 32.9454 106.638L31.9248 106.773L28.0233 105.631L25.434 104.122C25.0209 103.884 24.5538 103.755 24.0759 103.755H20.6901C20.1123 103.755 19.5507 103.941 19.0863 104.284L15.8382 106.684H14.0616C11.7153 106.684 10.4733 109.495 12.0852 111.226L12.3903 111.552L10.8918 111.925C9.8577 112.181 9.0693 113.018 8.883 114.071C8.4807 116.329 8.4807 116.547 8.4807 116.777C8.4807 117.932 8.9235 118.605 10.0575 119.307C7.668 121.089 7.4763 121.275 7.3575 121.388C6.021 122.682 6.372 124.123 7.5897 128.095C7.8354 128.897 8.4402 129.54 9.2232 129.834L9.4311 129.91C9.4149 130.082 9.4149 130.161 9.4149 130.231C9.4149 131.216 10.0386 132.618 11.6964 132.952L6.5826 134.643C5.2542 135.077 4.482 136.46 4.8006 137.821C5.1354 139.249 6.5313 140.091 7.8084 139.878L13.716 139.041C14.0508 138.995 14.3721 138.884 14.6637 138.72L20.7171 135.304C20.8062 135.25 20.8926 135.199 20.9763 135.134L22.4181 134.089C22.5909 133.962 22.7475 133.819 22.8852 133.66C23.1282 133.73 23.3847 133.768 23.6439 133.768C23.841 133.768 26.9028 133.114 27.2538 133.055C27.9234 132.977 28.5687 132.645 29.0142 132.137C29.0817 132.059 29.1465 131.978 29.2032 131.899L30.2751 132.79C30.8853 133.298 31.6764 133.503 32.4027 133.387L33.5259 133.22L33.9795 133.411C34.1145 133.468 35.6643 133.857 35.6643 133.857L38.5749 135.785C39.285 137.866 39.9006 138.301 40.2867 138.574C40.3839 138.658 40.6539 138.933 40.9266 139.195C41.2857 139.549 41.5692 139.824 41.823 140.045C41.9823 140.485 42.12 140.774 42.5196 141.16L44.3205 142.905C44.8308 143.396 45.5085 143.661 46.197 143.661C46.467 143.661 49.4532 142.77 49.4532 142.77C50.5791 142.416 51.3459 141.374 51.3459 140.194V138.031C51.3486 137.092 50.8545 136.217 50.0472 135.728ZM48.6486 140.199L46.1997 140.966L44.3988 139.222C44.3988 139.222 44.0397 138.244 43.821 138.174C43.605 138.104 42.2361 136.643 41.8392 136.36C41.4423 136.082 40.8672 134.057 40.8672 134.057L36.7605 131.34L35.0325 130.919L33.8796 130.433L32.0058 130.711L29.916 128.967L26.9541 128.757C26.9541 128.757 27.162 130.36 26.9541 130.36C26.7462 130.36 23.6466 131.057 23.6466 131.057L25.6635 128.128L24.9426 127.291L19.9719 131.473L20.8359 131.889L19.3941 132.934L13.3407 136.352L7.4331 137.191L13.3407 135.237L15.9354 133.422L16.1514 132.448L17.3043 131.192L14.4936 131.959L13.4838 130.215C13.4838 130.215 12.1149 130.282 12.1149 130.215C12.1149 130.004 12.4038 128.125 12.4038 128.125L10.1709 127.288C10.1709 127.288 9.018 123.519 9.234 123.311C9.45 123.103 12.2607 121.01 12.2607 121.01L13.7727 121.426L16.5105 120.314L16.3674 117.665L14.6367 118.502C14.6367 118.502 11.178 116.968 11.178 116.758C11.178 116.547 11.5371 114.528 11.5371 114.528L14.6367 113.761L14.7096 115.294C14.7096 115.294 16.0785 115.505 16.2945 115.505C16.5105 115.505 17.0883 113.48 17.0883 113.48C17.0883 113.48 15.7923 112.921 15.7194 112.716C15.6465 112.505 15.3603 110.764 15.3603 110.764L14.0643 109.368H16.7292L20.6928 106.438H24.0786L26.9541 108.112L31.7169 109.508L33.3018 109.298L35.0325 110.272V129.586L37.0494 130.144L39.2121 132.372L42.0714 131.189L46.3455 136.63L48.6513 138.023L48.6486 140.199ZM83.3274 135.199C83.1384 134.47 82.6524 133.843 81.9693 133.484C80.055 132.477 79.0938 131.994 78.5484 131.74C78.6861 130.544 78.0462 129.548 77.1147 129.075L74.52 127.752C73.8639 127.417 73.4211 127.431 72.8919 127.504L70.8021 126.772C70.2135 126.564 69.7545 126.589 69.2388 126.718L68.3775 125.59C67.8672 124.92 67.0734 124.526 66.2283 124.526H65.2185C63.7281 124.526 62.5185 125.735 62.5185 127.226V128.133C62.5185 129.413 63.4176 130.517 64.6704 130.776L66.6873 131.192C67.2192 131.3 67.2084 131.243 67.4271 131.224C67.7565 131.98 68.4342 132.515 69.2442 132.723C69.5547 133.598 70.0569 134.3 71.0721 134.61C71.739 134.807 72.2979 134.743 72.8622 134.51C73.089 134.667 73.3185 134.821 73.5858 134.902C73.7613 134.956 73.9422 134.964 74.1204 134.98C73.9017 135.291 73.7262 135.634 73.6587 136.02C73.5075 136.846 73.7343 137.575 74.2581 138.253L74.007 139.846C73.8261 140.998 74.4066 142.143 75.4488 142.67L76.8177 143.366C77.4387 143.682 78.1623 143.76 78.894 143.526C79.5798 143.299 80.1441 142.807 80.4654 142.159L80.7111 141.663C81.4779 141.466 82.1124 141.376 82.701 140.898L83.997 139.843C85.3713 138.733 85.5414 136.622 83.3274 135.199ZM74.9601 131.997C74.9628 131.98 74.9736 131.967 74.9736 131.951C75.0033 131.611 74.9439 131.276 74.8494 130.954L75.8862 131.481L74.9601 131.997ZM65.2212 128.138V127.231H66.231L67.2408 128.554L65.2212 128.138ZM81.0027 138.806L78.84 139.365L78.0462 140.969L76.6773 140.272L77.1093 137.518L76.3155 136.506L77.6844 135.669L77.1066 134.062C77.3955 134.132 80.7084 135.879 80.7084 135.879V136.716L82.2933 137.756L81.0027 138.806ZM58.6656 121.675H57.2967C55.8063 121.675 54.5967 122.881 54.5967 124.375V125.347C54.5967 126.837 55.8063 128.047 57.2967 128.047H58.6656C60.156 128.047 61.3656 126.837 61.3656 125.347V124.375C61.3656 122.881 60.156 121.675 58.6656 121.675ZM58.6656 125.349H57.2967V124.375H58.6656V125.349Z" fill="white"/>
</svg>
