<svg width="252" height="113" viewBox="0 0 252 113" fill="none" xmlns="http://www.w3.org/2000/svg">
<path d="M235.306 22.4656H179.278V0H49.7562V3.125H176.153V22.4656V88.8844H120.619C120.609 88.7688 120.587 88.6531 120.575 88.5313C120.547 88.1969 120.503 87.8594 120.456 87.525C120.403 87.1406 120.353 86.7563 120.278 86.3719C120.216 86.0469 120.144 85.725 120.069 85.4C119.981 85.0281 119.887 84.6563 119.781 84.2906C119.691 83.9719 119.584 83.6625 119.478 83.35C119.356 82.9906 119.228 82.6344 119.087 82.2875C118.969 81.9813 118.837 81.6844 118.703 81.3906C118.55 81.05 118.384 80.7063 118.216 80.3781C118.066 80.0844 117.912 79.8031 117.753 79.525C117.566 79.2 117.375 78.8844 117.172 78.5719C116.997 78.2969 116.819 78.0281 116.631 77.7594C116.419 77.4594 116.194 77.1688 115.969 76.875C115.769 76.6188 115.566 76.3688 115.356 76.1188C115.116 75.8406 114.869 75.5719 114.616 75.3063C114.394 75.0688 114.166 74.8344 113.934 74.6031C113.669 74.35 113.394 74.1094 113.119 73.8656C112.875 73.6531 112.631 73.4375 112.378 73.2313C112.091 73.0031 111.791 72.7844 111.494 72.5719C111.228 72.3813 110.969 72.1875 110.697 72.0094C110.384 71.8031 110.066 71.6156 109.741 71.425C109.462 71.2625 109.187 71.0938 108.903 70.9406C108.569 70.7625 108.219 70.6094 107.875 70.4469C107.584 70.3125 107.3 70.1719 107.006 70.05C106.644 69.8969 106.272 69.775 105.9 69.6406C105.606 69.5375 105.316 69.425 105.019 69.3313C104.619 69.2125 104.209 69.1188 103.8 69.0156C103.516 68.95 103.234 68.8625 102.95 68.8094C102.478 68.7125 101.994 68.65 101.516 68.5906C101.278 68.5594 101.047 68.5125 100.803 68.4875C100.078 68.4156 99.3406 68.375 98.5968 68.375C97.85 68.375 97.1125 68.4156 96.3875 68.4875C96.15 68.5125 95.9187 68.5594 95.6781 68.5906C95.1968 68.6531 94.7125 68.7125 94.2437 68.8094C93.9562 68.8656 93.6781 68.95 93.3968 69.0156C92.9875 69.1125 92.575 69.2094 92.1718 69.3344C91.875 69.4219 91.5875 69.5344 91.2968 69.6406C90.9218 69.7719 90.5468 69.8969 90.1843 70.05C89.8906 70.1719 89.6062 70.3125 89.3218 70.4469C88.975 70.6063 88.625 70.7656 88.2875 70.9438C88.0062 71.0938 87.7343 71.2625 87.4562 71.4219C87.1312 71.6125 86.8093 71.8 86.4937 72.0094C86.2218 72.1875 85.9625 72.3781 85.7 72.5688C85.4 72.7844 85.1031 73.0031 84.8156 73.2313C84.5593 73.4375 84.3187 73.6531 84.0718 73.8656C83.7968 74.1094 83.5219 74.35 83.2593 74.6031C83.025 74.8313 82.8031 75.0656 82.575 75.3063C82.325 75.575 82.0781 75.8406 81.8406 76.1188C81.6281 76.3688 81.4218 76.625 81.2218 76.8813C80.9968 77.1688 80.775 77.4625 80.5656 77.7594C80.375 78.0281 80.1968 78.2969 80.0187 78.5719C79.8187 78.8844 79.6281 79.1938 79.4437 79.5188C79.2781 79.8063 79.1218 80.0938 78.9718 80.3844C78.8031 80.7125 78.6468 81.0438 78.4937 81.3781C78.3562 81.6844 78.225 81.9813 78.1 82.2938C77.9625 82.6406 77.8375 82.9906 77.7187 83.3375C77.6093 83.6563 77.5062 83.9719 77.4093 84.2969C77.3062 84.6563 77.2125 85.0219 77.1281 85.3969C77.0531 85.7219 76.975 86.05 76.9125 86.3781C76.8437 86.7563 76.7906 87.1344 76.7375 87.5188C76.6906 87.8531 76.6469 88.1906 76.6187 88.5313C76.6062 88.6531 76.5812 88.7688 76.575 88.8844H51.3187V69.9375H48.1937V92.0094H76.6C77.4062 103.453 86.9531 112.522 98.5968 112.522C110.241 112.522 119.787 103.453 120.594 92.0094H176.153H179.278H192.828C193.634 103.453 203.181 112.522 214.825 112.522C226.469 112.522 236.016 103.453 236.822 92.0094H251.562V52.9406L235.306 22.4656ZM98.5968 109.397C88.1468 109.397 79.6468 100.894 79.6468 90.4469C79.6468 80 88.15 71.5 98.5968 71.5C109.044 71.5 117.547 80 117.547 90.4469C117.547 100.894 109.047 109.397 98.5968 109.397ZM214.825 109.397C204.375 109.397 195.875 100.894 195.875 90.4469C195.875 80 204.378 71.5 214.825 71.5C225.272 71.5 233.775 80 233.775 90.4469C233.775 100.894 225.275 109.397 214.825 109.397ZM248.437 88.8813H236.847C236.837 88.7656 236.816 88.65 236.803 88.5281C236.775 88.1938 236.731 87.8563 236.684 87.5219C236.631 87.1375 236.578 86.7531 236.506 86.3688C236.444 86.0438 236.372 85.7219 236.297 85.4031C236.209 85.025 236.116 84.6531 236.009 84.2875C235.919 83.9688 235.812 83.6594 235.709 83.3531C235.584 82.9938 235.456 82.6344 235.316 82.2781C235.197 81.9781 235.069 81.6875 234.934 81.3938C234.778 81.0469 234.612 80.7031 234.441 80.3625C234.294 80.0813 234.144 79.8 233.984 79.525C233.794 79.1969 233.597 78.8719 233.394 78.5531C233.222 78.2844 233.05 78.0219 232.869 77.7656C232.65 77.4531 232.419 77.1563 232.184 76.8563C231.991 76.6063 231.797 76.3625 231.591 76.125C231.347 75.8375 231.091 75.5563 230.828 75.2813C230.616 75.0563 230.397 74.8281 230.172 74.6094C229.9 74.3438 229.616 74.0938 229.331 73.8438C229.094 73.6406 228.859 73.4313 228.616 73.2344C228.319 72.9938 228.009 72.775 227.7 72.5469C227.447 72.3625 227.197 72.1813 226.937 72.0094C226.612 71.7969 226.278 71.6 225.944 71.4063C225.678 71.2469 225.416 71.0875 225.144 70.9438C224.797 70.7594 224.437 70.5969 224.081 70.4313C223.8 70.3031 223.528 70.1625 223.241 70.0469C222.869 69.8938 222.487 69.7656 222.106 69.6313C221.819 69.5313 221.541 69.4188 221.253 69.3313C220.844 69.2063 220.425 69.1125 220.012 69.0062C219.734 68.9406 219.462 68.8594 219.181 68.8063C218.706 68.7094 218.216 68.6469 217.731 68.5844C217.5 68.5531 217.272 68.5094 217.034 68.4844C216.309 68.4125 215.569 68.3719 214.825 68.3719C214.081 68.3719 213.341 68.4125 212.616 68.4844C212.381 68.5094 212.153 68.5531 211.919 68.5844C211.434 68.65 210.944 68.7094 210.469 68.8063C210.187 68.8625 209.916 68.9406 209.637 69.0062C209.222 69.1094 208.803 69.2031 208.397 69.3313C208.106 69.4156 207.828 69.5281 207.544 69.6313C207.162 69.7656 206.781 69.8938 206.409 70.0469C206.122 70.1625 205.847 70.3031 205.569 70.4313C205.212 70.5969 204.853 70.7594 204.509 70.9438C204.234 71.0906 203.972 71.25 203.703 71.4063C203.372 71.6031 203.034 71.7969 202.712 72.0094C202.453 72.1813 202.203 72.3625 201.95 72.5469C201.641 72.7719 201.331 72.9938 201.034 73.2344C200.791 73.4313 200.556 73.6406 200.319 73.8438C200.034 74.0938 199.75 74.3438 199.478 74.6094C199.253 74.8281 199.034 75.0563 198.822 75.2813C198.559 75.5563 198.303 75.8375 198.059 76.125C197.853 76.3625 197.656 76.6063 197.466 76.8563C197.231 77.1563 197.003 77.4531 196.781 77.7656C196.6 78.0219 196.428 78.2844 196.256 78.5531C196.053 78.8719 195.853 79.1938 195.666 79.525C195.506 79.8 195.356 80.0813 195.209 80.3625C195.034 80.7031 194.872 81.0469 194.716 81.3938C194.581 81.6875 194.453 81.9813 194.334 82.2781C194.194 82.6313 194.066 82.9938 193.941 83.3531C193.837 83.6594 193.734 83.9688 193.641 84.2875C193.534 84.6531 193.444 85.025 193.353 85.4031C193.278 85.7219 193.203 86.0438 193.144 86.3688C193.075 86.7531 193.019 87.1375 192.966 87.5219C192.919 87.8563 192.875 88.1938 192.847 88.5281C192.834 88.65 192.812 88.7656 192.803 88.8813H179.278V25.5906H233.431L248.437 53.7219V88.8813Z" fill="white"/>
<path d="M91.9876 16.8H21.9032V19.925H91.9876V16.8Z" fill="white"/>
<path d="M91.9875 35.575H0V38.7H91.9875V35.575Z" fill="white"/>
<path d="M91.9876 54.3468H21.9032V57.4718H91.9876V54.3468Z" fill="white"/>
</svg>
