<svg width="18" height="18" viewBox="0 0 18 18" fill="none" xmlns="http://www.w3.org/2000/svg">
<circle cx="9" cy="9" r="8.5" fill="white" stroke="#282E37"/>
<path d="M11.1044 7.181C11.1044 7.555 11.0347 7.93267 10.8954 8.314C10.7634 8.69533 10.5911 9.06933 10.3784 9.436C10.1731 9.80267 9.94206 10.1583 9.68539 10.503C9.43606 10.8403 9.19039 11.152 8.94839 11.438L8.36539 11.889V11.944L9.15739 11.79H11.2694V13H6.63839V12.263C6.81439 12.0797 7.01239 11.867 7.23239 11.625C7.45239 11.3757 7.67239 11.1153 7.89239 10.844C8.11973 10.5653 8.33973 10.2793 8.55239 9.986C8.76506 9.69267 8.95573 9.39933 9.12439 9.106C9.29306 8.80533 9.42506 8.51567 9.52039 8.237C9.62306 7.95833 9.67439 7.69433 9.67439 7.445C9.67439 7.14433 9.58639 6.89867 9.41039 6.708C9.24173 6.51 8.97039 6.411 8.59639 6.411C8.36173 6.411 8.11973 6.46233 7.87039 6.565C7.62839 6.66033 7.42306 6.785 7.25439 6.939L6.68239 5.927C6.96839 5.69233 7.29106 5.50533 7.65039 5.366C8.01706 5.21933 8.44606 5.146 8.93739 5.146C9.25273 5.146 9.54239 5.19 9.80639 5.278C10.0704 5.366 10.2977 5.49433 10.4884 5.663C10.6791 5.83167 10.8294 6.04433 10.9394 6.301C11.0494 6.55033 11.1044 6.84367 11.1044 7.181Z" fill="#282E37"/>
</svg>
