<svg width="22" height="22" viewBox="0 0 22 22" fill="none" xmlns="http://www.w3.org/2000/svg">
<path d="M5.5 1.83333L2.75 5.5V18.3333C2.75 18.8196 2.94315 19.2859 3.28697 19.6297C3.63079 19.9735 4.0971 20.1667 4.58333 20.1667H17.4167C17.9029 20.1667 18.3692 19.9735 18.713 19.6297C19.0568 19.2859 19.25 18.8196 19.25 18.3333V5.5L16.5 1.83333H5.5Z" stroke="#282E37" stroke-linecap="round" stroke-linejoin="round"/>
<path d="M2.75 5.5H19.25" stroke="#282E37" stroke-linecap="round" stroke-linejoin="round"/>
<path d="M14.6667 9.16666C14.6667 10.1391 14.2804 11.0718 13.5928 11.7594C12.9051 12.447 11.9725 12.8333 11 12.8333C10.0276 12.8333 9.09495 12.447 8.40732 11.7594C7.71968 11.0718 7.33337 10.1391 7.33337 9.16666" stroke="#282E37" stroke-linecap="round" stroke-linejoin="round"/>
</svg>
